<svg xmlns="http://www.w3.org/2000/svg" viewBox="0 0 112.45 89.12"><defs><style>.cls-1{fill:#fff;}</style></defs><title>Asset 6svg</title><g id="Layer_2" data-name="Layer 2"><g id="Isolation_Mode" data-name="Isolation Mode"><path class="cls-1" d="M109.14,42.37c-.14.25-.32.48-.48.72a16.88,16.88,0,0,1-3,4.42c-3.52,3.88-7.29,7.53-11.06,11.17S87.34,66,83.69,69.7c-2.53,2.54-5.09,5-7.64,7.56A68.79,68.79,0,0,1,67.89,85C61.37,90,54.56,90.47,47.43,86.38A44.48,44.48,0,0,1,38.2,79a29.26,29.26,0,0,0,6.63,1.69,19.17,19.17,0,0,0,13.75-3.93,62,62,0,0,0,6.93-6.33c.83-.83,1.67-1.62,2.51-2.44l0,0,1.51-1.57h0L70,66,86.27,49.76l.16-.16h0l1.1-1.09.08-.09c2.19-2.23,4.31-4.52,6.58-6.64a18.15,18.15,0,0,0,5.94-12.24A16.81,16.81,0,0,0,93.78,16,18.29,18.29,0,0,0,87,12.75a20.2,20.2,0,0,0-7.27.15,16.94,16.94,0,0,0-7.84,4.36c-.44.43-.91.85-1.36,1.27L56.27,32.88c-.59.59-1.2,1.15-1.8,1.72l-.48.47a13.44,13.44,0,0,1-2,2,36.19,36.19,0,0,1-3.72,3.71,12.22,12.22,0,0,1-16.52-.65q-3.54-3.45-7-7a6.16,6.16,0,1,1,8.75-8.68c1.41,1.37,2.77,2.79,4.18,4.16a3.57,3.57,0,0,0,5.43,0c1.53-1.48,3-3,4.56-4.46l.94-1h0l1.06-1.06,0,0c4.6-4.75,9.26-9.45,14-14A26.94,26.94,0,0,1,80.23.4,26.31,26.31,0,0,1,92.8,1.66c16.78,5.7,24.6,25.19,16.34,40.71"/><path class="cls-1" d="M87.94,33.24C82.51,38.74,77,44.18,71.55,49.64a1.29,1.29,0,0,1-.31.16q-4.9,5-9.81,10c-.8.81-1.65,1.59-2.47,2.38a24.65,24.65,0,0,1-13.32,8.17c-.32.07-.65.08-1,.12a4,4,0,0,1-1.93.27,27.9,27.9,0,0,1-5.17,0A21.06,21.06,0,0,1,24.31,65c-5.92-5.47-11.69-11.13-17.1-17.11C1.11,41.14-1,33,.4,24a23,23,0,0,1,2.66-8A27.37,27.37,0,0,1,15.3,3.43,26.93,26.93,0,0,1,30,0,28.68,28.68,0,0,1,50,9.14c.54.56.63.85,0,1.43q-3.69,3.59-7.27,7.28c-.6.62-.94.67-1.55,0a16.49,16.49,0,0,0-11.31-5.5,18.35,18.35,0,0,0-7.82,1.35,16.86,16.86,0,0,0-9.26,11.11c-.09.33-.19.64-.28,1l-.25,2.12v.9a17.67,17.67,0,0,0,5.79,12.71C22,45.24,25.76,49.12,29.55,53a18.43,18.43,0,0,0,5.31,3.67l.55.21h0l1.94.51h0a14.61,14.61,0,0,0,11.55-2.77c1-.75,1.86-1.66,2.78-2.49L61.92,41.87l.29-.3,1.27-1.27.09-.09h0l.12-.12.52-.52c5-5,10-10,15-15a6.15,6.15,0,0,1,8.72,8.68"/></g></g></svg>