<svg xmlns="http://www.w3.org/2000/svg" viewBox="0 0 126.05 182.66"><defs><style>.cls-1{fill:#fff;}</style></defs><title>Asset 5svg</title><g id="Layer_2" data-name="Layer 2"><g id="Isolation_Mode" data-name="Isolation Mode"><path class="cls-1" d="M115.93,42.37a8.06,8.06,0,0,1-.47.72,16.88,16.88,0,0,1-3,4.42C109,51.39,105.18,55,101.41,58.68S94.14,66,90.49,69.7c-2.53,2.54-5.09,5-7.64,7.56A68.79,68.79,0,0,1,74.69,85C68.17,90,61.36,90.47,54.23,86.38A44.79,44.79,0,0,1,45,79a29.33,29.33,0,0,0,6.64,1.69,19.17,19.17,0,0,0,13.75-3.93,62,62,0,0,0,6.93-6.33c.83-.83,1.67-1.62,2.51-2.44l0,0,1.5-1.57h0l.44-.45L93.07,49.76l.16-.16h0l1.1-1.09.09-.09c2.19-2.23,4.31-4.52,6.58-6.64a18.15,18.15,0,0,0,5.94-12.24A16.81,16.81,0,0,0,100.58,16a18.29,18.29,0,0,0-6.79-3.27,20.2,20.2,0,0,0-7.27.15,16.94,16.94,0,0,0-7.84,4.36c-.44.43-.91.85-1.36,1.27Q70.19,25.7,63.06,32.88c-.58.59-1.2,1.15-1.8,1.72l-.47.47a13.44,13.44,0,0,1-2,2A36.19,36.19,0,0,1,55,40.81a12.23,12.23,0,0,1-16.53-.65q-3.54-3.45-7-7a6.16,6.16,0,1,1,8.75-8.68c1.4,1.37,2.77,2.79,4.17,4.16a3.58,3.58,0,0,0,5.44,0c1.53-1.48,3-3,4.56-4.46l.94-1h0l1.06-1.06,0,0c4.6-4.75,9.26-9.45,14-14A26.94,26.94,0,0,1,87,.4,26.31,26.31,0,0,1,99.6,1.66c16.78,5.7,24.59,25.19,16.33,40.71"/><path class="cls-1" d="M94.73,33.24c-5.42,5.5-10.91,10.94-16.38,16.4a1.29,1.29,0,0,1-.31.16q-4.91,5-9.81,10c-.8.81-1.65,1.59-2.47,2.38a24.65,24.65,0,0,1-13.32,8.17c-.32.07-.65.08-1,.12a4,4,0,0,1-1.94.27,27.79,27.79,0,0,1-5.16,0A21.06,21.06,0,0,1,31.11,65C25.19,59.52,19.42,53.86,14,47.88,7.91,41.14,5.84,33,7.2,24a22.83,22.83,0,0,1,2.66-8A27.37,27.37,0,0,1,22.1,3.43,26.93,26.93,0,0,1,36.78,0a28.68,28.68,0,0,1,20,9.11c.54.56.63.85,0,1.43q-3.69,3.59-7.27,7.28c-.6.62-.94.67-1.55,0a16.49,16.49,0,0,0-11.31-5.5,18.35,18.35,0,0,0-7.82,1.35,16.86,16.86,0,0,0-9.26,11.11c-.09.33-.19.64-.29,1l-.25,2.12v.9a17.67,17.67,0,0,0,5.79,12.71c3.91,3.75,7.71,7.63,11.5,11.49a18.29,18.29,0,0,0,5.31,3.67l.55.21h0l1.94.51h0a14.61,14.61,0,0,0,11.55-2.77c1-.75,1.86-1.66,2.78-2.49L68.72,41.87l.29-.3,1.27-1.27.09-.09h0l.12-.12.52-.52c5-5,10-10,15-15a6.15,6.15,0,0,1,8.71,8.68"/><rect class="cls-1" x="100.21" y="170.6" width="14.01" height="2.37"/><path class="cls-1" d="M121.44,133.76v16.91c0,4.55-1.71,6.27-6.68,6.27-2.66,0-4.49-.47-5.8-1.54a15.42,15.42,0,0,0,.66-4.67v-14H105v13.95c0,4.55-1.71,6.27-6.68,6.27-2.66,0-4.43-.47-5.79-1.54a13.79,13.79,0,0,0,.65-4.67v-11H88.56v11c0,4.49-1.71,6.27-6.79,6.27h-17V118H60.13v39H44.29a7.82,7.82,0,0,1-6.69-3c-1-13.36-9.52-22.83-18.09-22.83-11.36,0-12,16.27-12.89,22.42C2.48,155.52,0,160.61,0,167a23.49,23.49,0,0,0,6.09,15.67l3.84-2.3a20.09,20.09,0,0,1-5.62-13.43c0-4.32,1.54-7.45,4.2-8.46a27.6,27.6,0,0,0,12.06,2.84,44.82,44.82,0,0,0,15.79-3.19c2.13,2.07,5.21,3.19,9,3.19H82.12c3.91,0,6.68-.83,8.46-2.6,2,1.66,4.67,2.6,8.39,2.6s6.33-.83,8-2.6c1.94,1.66,4.67,2.6,8.39,2.6,7.33,0,10.64-3.43,10.64-10.58v-17ZM20.64,156.94a22.84,22.84,0,0,1-9.59-2.13c1.13-5.56,1.07-19.34,8.63-19.34,6.39,0,12.78,8.7,13.37,19.22a40.87,40.87,0,0,1-12.41,2.25"/></g></g></svg>