<svg xmlns="http://www.w3.org/2000/svg" xmlns:xlink="http://www.w3.org/1999/xlink" viewBox="0 0 197.45 197.45"><defs><style>.cls-1{fill:none;}.cls-2{clip-path:url(#clip-path);}.cls-3{fill:url(#linear-gradient);}.cls-4{clip-path:url(#clip-path-2);}.cls-5{fill:#5481ff;}.cls-6{clip-path:url(#clip-path-3);}.cls-7{fill:url(#linear-gradient-2);}.cls-8{clip-path:url(#clip-path-4);}.cls-9{fill:url(#linear-gradient-3);}.cls-10{clip-path:url(#clip-path-5);}.cls-11{fill:url(#linear-gradient-4);}</style><clipPath id="clip-path" transform="translate(-847.21 -373.21)"><path class="cls-1" d="M989.22,435.09a2,2,0,0,0,1.52,1.31c.34.08.73-.44.65-.88a1.81,1.81,0,0,0-1.32-1.32c-.49.14-1,.37-.85.89"/></clipPath><linearGradient id="linear-gradient" y1="1079.98" x2="1" y2="1079.98" gradientTransform="matrix(2.2, 0, 0, -2.2, 141.98, 2443.47)" gradientUnits="userSpaceOnUse"><stop offset="0" stop-color="#5481ff"/><stop offset="1" stop-color="#03d4ff"/></linearGradient><clipPath id="clip-path-2" transform="translate(-847.21 -373.21)"><rect class="cls-1" width="1920" height="1077.81"/></clipPath><clipPath id="clip-path-3" transform="translate(-847.21 -373.21)"><polygon class="cls-1" points="950.68 457.06 950.68 457.07 950.68 457.06 950.68 457.06"/></clipPath><linearGradient id="linear-gradient-2" x1="950.68" y1="457.06" x2="950.68" y2="457.06" gradientTransform="matrix(0, 0, 0, 0, 103.47, 89.05)" xlink:href="#linear-gradient"/><clipPath id="clip-path-4" transform="translate(-847.21 -373.21)"><path class="cls-1" d="M910.16,433a33.21,33.21,0,0,0-14.91,15.29A27.92,27.92,0,0,0,892,458c-1.66,10.95.86,20.84,8.29,29,6.59,7.28,13.61,14.18,20.83,20.84a25.61,25.61,0,0,0,16.13,7,34.78,34.78,0,0,0,6.29,0,4.72,4.72,0,0,0,2.35-.33,9.6,9.6,0,0,0,1.2-.15,30,30,0,0,0,16.22-9.94c1-1,2-1.91,3-2.91q6-6.06,11.94-12.13a1.37,1.37,0,0,0,.38-.2c6.66-6.65,13.35-13.27,20-20A7.49,7.49,0,0,0,988,458.7c-6.14,6-12.18,12.18-18.27,18.27l-.63.63-.15.15h0l-.12.11-1.54,1.55-.36.36q-6.23,6.24-12.43,12.5c-1.12,1-2.19,2.11-3.38,3a17.86,17.86,0,0,1-14.07,3.37h0l-2.36-.63h0l-.67-.25a22.29,22.29,0,0,1-6.46-4.48c-4.63-4.7-9.24-9.43-14-14a21.53,21.53,0,0,1-7-15.48c0-.36,0-.71,0-1.06v0l.3-2.58c.12-.38.24-.77.35-1.16a20.51,20.51,0,0,1,11.27-13.53,22.37,22.37,0,0,1,9.53-1.65,20.13,20.13,0,0,1,13.78,6.71c.74.81,1.15.75,1.88,0,2.91-3,5.85-5.95,8.85-8.86.74-.72.63-1.06,0-1.75A34.93,34.93,0,0,0,928,428.82c-.55,0-1.09,0-1.64,0A32.35,32.35,0,0,0,910.16,433"/></clipPath><linearGradient id="linear-gradient-3" y1="1079.89" y2="1079.89" gradientTransform="matrix(89.8, 0, 0, -89.8, 902.62, 97451.16)" xlink:href="#linear-gradient"/><clipPath id="clip-path-5" transform="translate(-847.21 -373.21)"><path class="cls-1" d="M966.93,479.77h0l.36-.36Z"/></clipPath><linearGradient id="linear-gradient-4" y1="1080" y2="1080" gradientTransform="matrix(0.36, 0, 0, -0.36, 119.72, 498.28)" xlink:href="#linear-gradient"/></defs><title>Asset 1svg</title><g id="Layer_2" data-name="Layer 2"><g id="Layer_1-2" data-name="Layer 1"><g class="cls-2"><rect class="cls-3" x="141.86" y="60.99" width="2.4" height="2.28"/></g><g class="cls-4"><path class="cls-5" d="M1024.43,480.38c-.16.31-.38.58-.57.88a20.61,20.61,0,0,1-3.65,5.38c-4.29,4.73-8.87,9.18-13.47,13.6-4.43,4.47-8.85,9-13.29,13.42-3.09,3.09-6.21,6.14-9.31,9.21a84.47,84.47,0,0,1-9.93,9.45c-7.94,6-16.24,6.63-24.92,1.66A55.08,55.08,0,0,1,938,525a35.92,35.92,0,0,0,8.08,2.05,23.34,23.34,0,0,0,16.74-4.79,73.46,73.46,0,0,0,8.45-7.71c1-1,2-2,3.05-3l0,0,1.83-1.91h0l.53-.54,19.82-19.73.2-.21h0l1.34-1.34.1-.11c2.67-2.7,5.24-5.5,8-8.07a22.08,22.08,0,0,0,7.23-14.91,20.47,20.47,0,0,0-7.72-16.46,22.42,22.42,0,0,0-8.27-4,24.67,24.67,0,0,0-8.86.18,20.75,20.75,0,0,0-9.55,5.31c-.53.53-1.1,1-1.65,1.55l-17.36,17.47c-.71.72-1.46,1.4-2.19,2.1l-.58.57A16.61,16.61,0,0,1,954.8,474a42.87,42.87,0,0,1-4.53,4.51,14.88,14.88,0,0,1-20.12-.79c-2.87-2.8-5.71-5.65-8.52-8.52a7.51,7.51,0,1,1,10.65-10.58c1.71,1.67,3.37,3.4,5.08,5.07,2.09,2,4.51,2,6.62,0,1.86-1.8,3.71-3.63,5.55-5.44l1.15-1.14h0l1.29-1.29,0,0c5.61-5.78,11.28-11.5,17.09-17.08a32.74,32.74,0,0,1,20.14-9.39,32.1,32.1,0,0,1,15.31,1.53c20.44,6.95,30,30.68,19.89,49.58" transform="translate(-847.21 -373.21)"/></g><g class="cls-6"><rect class="cls-7" x="103.47" y="83.85" height="0.01"/></g><g class="cls-8"><rect class="cls-9" x="876.12" y="402.12" width="139.62" height="139.62" transform="translate(-903.86 433.89) rotate(-45)"/></g><g class="cls-10"><rect class="cls-11" x="119.72" y="106.2" width="0.36" height="0.36"/></g></g></g></svg>